<svg xmlns="http://www.w3.org/2000/svg" viewBox="0 0 512 512">
  <path fill="currentColor" d="M184 92c0-30 24-54 54-54h36c30 0 54 24 54 54v25c44 24 74 70 74 124v150c0 46-37 83-83 83H193c-46 0-83-37-83-83V241c0-54 30-100 74-124V92Zm54-18c-10 0-18 8-18 18v12h72V92c0-10-8-18-18-18h-36Zm-45 66c-26 0-47 21-47 47v204c0 26 21 47 47 47h126c26 0 47-21 47-47V187c0-26-21-47-47-47H193Zm-25 117c0-25 20-45 45-45s45 20 45 45v52c0 25-20 45-45 45s-45-20-45-45v-52Zm36 0v52c0 5 4 9 9 9s9-4 9-9v-52c0-5-4-9-9-9s-9 4-9 9Zm50 142c0-10 8-18 18-18h47c10 0 18 8 18 18s-8 18-18 18h-47c-10 0-18-8-18-18Zm1-142c0-25 20-45 45-45s45 20 45 45v52c0 25-20 45-45 45s-45-20-45-45v-52Zm36 0v52c0 5 4 9 9 9s9-4 9-9v-52c0-5-4-9-9-9s-9 4-9 9Z"/>
</svg>
